<svg xmlns="http://www.w3.org/2000/svg" viewBox="0 0 45 45"><defs><style>.cls-1{fill:#bda777;}.cls-2{fill:#333;}.cls-3{fill:#fff;}</style></defs><title>Recurso 11</title><g id="Capa_2" data-name="Capa 2"><g id="Content"><g id="Style_2" data-name="Style 2"><path class="cls-1" d="M22.5,0A22.5,22.5,0,1,0,45,22.5,22.5,22.5,0,0,0,22.5,0ZM9,17l7.3,4.46L9,30.68Zm1,14.24,7.54-9.48,4.95,3,4.93-3L35,31.28Zm25.72-.57-7.34-9.22L35.72,17Zm0-15.58L22.35,23.34,9,15.22V13H35.72Z"/><polygon class="cls-2" points="16.3 21.5 9 30.68 9 17.04 16.3 21.5"/><polygon class="cls-2" points="27.42 21.78 34.97 31.27 10 31.27 17.54 21.8 22.49 24.82 27.42 21.78"/><polygon class="cls-2" points="35.72 12.99 35.72 15.13 22.34 23.34 9 15.22 9 12.99 35.72 12.99"/><polygon class="cls-2" points="28.38 21.49 35.72 16.96 35.72 30.71 28.38 21.49"/><polygon class="cls-3" points="16.3 21.5 9 30.68 9 17.04 16.3 21.5"/><polygon class="cls-3" points="34.97 31.27 10 31.27 17.54 21.8 22.49 24.82 27.42 21.78 34.97 31.27"/><polygon class="cls-3" points="35.72 12.99 35.72 15.13 22.34 23.34 9 15.22 9 12.99 35.72 12.99"/><polygon class="cls-3" points="35.72 16.96 35.72 30.71 28.38 21.49 35.72 16.96"/></g></g></g></svg>