<svg xmlns="http://www.w3.org/2000/svg" viewBox="0 0 412.68 412.68"><defs><style>.cls-1{fill:#c5b184;}.cls-2{fill:#f6f5f0;}</style></defs><title>emprendedurismo</title><g id="Capa_2" data-name="Capa 2"><g id="Capa_1-2" data-name="Capa 1"><rect class="cls-1" width="412.68" height="412.68"/><path class="cls-2" d="M341.82,99.58h0L323.6,97a4.68,4.68,0,0,1-2.14-8.38l14.71-11a4.68,4.68,0,0,0,.94-6.55L320.26,48.55a4.68,4.68,0,0,0-6.55-.94L299,58.65a4.68,4.68,0,0,1-7.46-4.4L294.14,36a4.68,4.68,0,0,0-4-5.3h0l-27.78-4a4.67,4.67,0,0,0-5.3,4h0L254.49,49a4.69,4.69,0,0,1-8.38,2.15l-11-14.72a4.67,4.67,0,0,0-6.55-.93L214.47,46a90,90,0,0,0-19.14,0,88.91,88.91,0,0,0-78.4,79.73c-.13,1.32-.17,2.64-.24,4h-1.4a4.69,4.69,0,0,0-4.58,3.75l-3.23,15.37-13-8.93a4.68,4.68,0,0,0-6,.54l-14,14a4.67,4.67,0,0,0-.55,6l8.9,12.93-15.39,3.24a4.67,4.67,0,0,0-3.67,4.58v18.72a4.68,4.68,0,0,0,3.71,4.58l15.38,3.23L74,220.62a4.7,4.7,0,0,0,.54,6l14,14a4.69,4.69,0,0,0,6,.55l12.93-8.92,3.23,15.38a4.7,4.7,0,0,0,4.58,3.75H134a4.68,4.68,0,0,0,4.58-3.72l3.24-15.38,12.93,8.89a4.68,4.68,0,0,0,6-.54l7.26-7.29v13.34a18.68,18.68,0,0,0,9.36,16.11v26a18.72,18.72,0,0,0,18.72,18.72h18.72a18.72,18.72,0,0,0,18.72-18.72v-26a18.66,18.66,0,0,0,9.36-16.11V228.15a22.93,22.93,0,0,1,10.82-19.1,90.16,90.16,0,0,0,11-8.42l-6.24-7a79.14,79.14,0,0,1-9.86,7.54,32.26,32.26,0,0,0-15.1,27v18.53a9.36,9.36,0,0,1-9.36,9.35H186.71a9.36,9.36,0,0,1-9.36-9.35V227.76a31.46,31.46,0,0,0-14.84-26.41A79.31,79.31,0,0,1,204.43,54.88c-.07.16-.13.33-.19.51a4.66,4.66,0,0,0,.9,3.46l11,14.71a4.6,4.6,0,0,1,.28,5.2A4.66,4.66,0,0,1,211.77,81l-18.21-2.6a4.68,4.68,0,0,0-5.29,4h0l-4,27.79a4.69,4.69,0,0,0,4,5.3h0l18.2,2.6a4.69,4.69,0,0,1,2.15,8.38l-14.71,11A4.67,4.67,0,0,0,193,144l16.84,22.46a4.68,4.68,0,0,0,6.55.94l14.72-11a4.67,4.67,0,0,1,7.43,4.4L235.93,179a4.66,4.66,0,0,0,4,5.29h0l27.8,4a4.87,4.87,0,0,0,.66,0,4.68,4.68,0,0,0,4.64-4l2.6-18.2A4.68,4.68,0,0,1,284,164l11,14.71a4.68,4.68,0,0,0,6.55.94L324,162.75a4.68,4.68,0,0,0,.94-6.55l-11-14.71a4.6,4.6,0,0,1-.28-5.2,4.53,4.53,0,0,1,4.68-2.24l18.2,2.6a4.69,4.69,0,0,0,5.3-4h0l4-27.8A4.69,4.69,0,0,0,341.82,99.58ZM186.71,265.39h37.44v9.36H186.71Zm0,18.72h37.44v4.68a9.36,9.36,0,0,1-9.36,9.36H196.07a9.36,9.36,0,0,1-9.36-9.36Zm-37.25-80.7a86.5,86.5,0,0,0,8,5.83,22.84,22.84,0,0,1,9.43,12l-10,10-9.72-6.7a9.36,9.36,0,0,0-14.47,5.78L130.21,242H119.08l-2.45-11.67a9.36,9.36,0,0,0-14.47-5.78l-9.72,6.68-8.53-8.51,6.7-9.71a9.37,9.37,0,0,0-2.39-13,9.49,9.49,0,0,0-3.39-1.46l-11.66-2.45V185l11.66-2.46a9.36,9.36,0,0,0,7.22-11.1,9.55,9.55,0,0,0-1.44-3.34l-6.7-9.75,8.53-8.51,9.73,6.71a9.36,9.36,0,0,0,14.46-5.79l.82-3.89a89.21,89.21,0,0,0,3.71,15.87,28.08,28.08,0,1,0,28.3,40.71Zm-7.27-6.59a18.69,18.69,0,1,1-17.55-25h.18A88.65,88.65,0,0,0,142.19,196.82Zm191-70.11-13.57-1.94a14,14,0,0,0-13.22,22.32l8.22,11-15,11.23-8.23-11a14,14,0,0,0-25.13,6.43l-1.89,13.59-18.53-2.65,1.94-13.57a14,14,0,0,0-22.32-13.22l-11,8.22-11.23-15,11-8.23a14,14,0,0,0-6.44-25.13l-13.57-1.94,2.65-18.52,13.57,1.93A14,14,0,0,0,223.68,68l-8.25-11,15-11.23,8.23,11a14,14,0,0,0,25.13-6.43l1.93-13.57,18.53,2.64-1.94,13.57a14,14,0,0,0,22.32,13.22l11-8.23,11.23,15-11,8.23a14,14,0,0,0,6.43,25.13l13.57,1.93Z"/><path class="cls-2" d="M265,70.08a37.44,37.44,0,1,0,37.44,37.44A37.43,37.43,0,0,0,265,70.08Zm0,65.52a28.08,28.08,0,1,1,28.08-28.08A28.08,28.08,0,0,1,265,135.6Z"/><rect class="cls-2" x="200.75" y="232.64" width="9.36" height="14.04"/><path class="cls-2" d="M185,186.68a56.17,56.17,0,0,1-9.48-99.84l-5-7.91a65.52,65.52,0,0,0,11.09,116.46,29.86,29.86,0,0,1,19.18,27.89h9.36A39.13,39.13,0,0,0,185,186.68Z"/><rect class="cls-2" x="294.35" y="199.88" width="32.76" height="9.36"/><rect class="cls-2" x="299.03" y="221.38" width="9.36" height="36.55" transform="matrix(0.64, -0.77, 0.77, 0.64, -74.82, 319.59)"/><rect class="cls-2" x="266.27" y="237.32" width="9.36" height="32.76"/><rect class="cls-2" x="69.14" y="101.6" width="38.59" height="9.35" transform="translate(-23.13 24.62) rotate(-14.03)"/><rect class="cls-2" x="90.78" y="46.38" width="9.35" height="40.25" transform="translate(-14.15 105.53) rotate(-54.46)"/><rect class="cls-2" x="121.09" y="26.12" width="9.36" height="38.64" transform="translate(-7.34 32.57) rotate(-14.34)"/></g></g></svg>