<svg xmlns="http://www.w3.org/2000/svg" viewBox="0 0 45 45"><defs><style>.cls-1{fill:#bda777;}.cls-2{fill:#333;}.cls-3{fill:#fff;}</style></defs><title>Recurso 10</title><g id="Capa_2" data-name="Capa 2"><g id="Content"><g id="Flat_copy" data-name="Flat copy"><path class="cls-1" d="M22.5,0A22.5,22.5,0,1,0,45,22.5,22.5,22.5,0,0,0,22.5,0Zm6.19,14.4H26.34c-1.74,0-1.87.59-1.87,1.69v2.53h3.82l-.45,4.22H24.47V35.49H18.84V22.84H16V18.62h2.81V16c0-3.63,1.59-5.78,6.11-5.78h3.74Z"/><path class="cls-2" d="M24.47,16.09v2.53h3.82l-.45,4.22H24.47V35.49H18.84V22.84H16V18.62h2.81V16c0-3.63,1.59-5.78,6.11-5.78h3.74V14.4H26.34C24.6,14.4,24.47,15,24.47,16.09Z"/><path class="cls-3" d="M24.47,16.09v2.53h3.82l-.45,4.22H24.47V35.49H18.84V22.84H16V18.62h2.81V16c0-3.63,1.59-5.78,6.11-5.78h3.74V14.4H26.34C24.6,14.4,24.47,15,24.47,16.09Z"/></g></g></g></svg>