<svg xmlns="http://www.w3.org/2000/svg" viewBox="0 0 201.34 57.91"><defs><style>.cls-1{fill:#bcab72;}</style></defs><title>Recurso 15</title><g id="Capa_2" data-name="Capa 2"><g id="Content"><path class="cls-1" d="M16.58,8.19v8.17H8.28A8.11,8.11,0,0,1,2.44,14,7.78,7.78,0,0,1,0,8.2,7.84,7.84,0,0,1,2.44,2.4,8.05,8.05,0,0,1,8.28,0a8.09,8.09,0,0,1,5.85,2.4,7.81,7.81,0,0,1,2.45,5.8m2.88,0v8.16h8.31A8.07,8.07,0,0,0,33.6,14,7.79,7.79,0,0,0,36.05,8.2,7.84,7.84,0,0,0,33.6,2.4a8.31,8.31,0,0,0-11.68,0A7.82,7.82,0,0,0,19.46,8.2ZM23.31,13V8.15a5.08,5.08,0,0,1,1.16-3.28,4.68,4.68,0,0,1,4.38-1.69,4.28,4.28,0,0,1,2.23,1A5,5,0,0,1,33,8.09a4.79,4.79,0,0,1-1.4,3.46A4.59,4.59,0,0,1,28.13,13Zm0,9.6v5A5.21,5.21,0,0,0,24.51,31,4.83,4.83,0,0,0,29,32.73a4.38,4.38,0,0,0,2.3-1,5.14,5.14,0,0,0,1.94-4.06,5,5,0,0,0-1.45-3.58,4.74,4.74,0,0,0-3.53-1.49Zm-3.85,5.06V19.24h7.66a8.6,8.6,0,0,1,7.1,3.57,8.26,8.26,0,0,1,1.48,4.85,8.26,8.26,0,0,1-2.41,6,7.69,7.69,0,0,1-5.72,2.48,7.53,7.53,0,0,1-4.74-1.61V54.36a3.5,3.5,0,0,1-1,2.5,3.15,3.15,0,0,1-2.38,1ZM13.22,22.6v5A5.21,5.21,0,0,1,12,31,4.83,4.83,0,0,1,7.5,32.73a4.38,4.38,0,0,1-2.3-1,5.14,5.14,0,0,1-1.94-4.06,4.92,4.92,0,0,1,1.45-3.58A4.74,4.74,0,0,1,8.24,22.6Zm3.36,5.06V19.24H8.93a8.63,8.63,0,0,0-7.11,3.57A8.25,8.25,0,0,0,.35,27.66a8.29,8.29,0,0,0,2.4,6,7.73,7.73,0,0,0,5.73,2.48,7.53,7.53,0,0,0,4.74-1.61v11.7a3.51,3.51,0,0,0,1,2.5,3.17,3.17,0,0,0,2.37,1ZM13.22,13V8.15a5.06,5.06,0,0,0-1.16-3.28A4.68,4.68,0,0,0,7.68,3.18a4.28,4.28,0,0,0-2.23,1A5,5,0,0,0,3.57,8.09,4.79,4.79,0,0,0,5,11.55,4.57,4.57,0,0,0,8.4,13Z"/><path class="cls-1" d="M201.34,19.53v8.63h-8.68a8.44,8.44,0,0,1-6.1-2.49,8.14,8.14,0,0,1-2.55-6,8.18,8.18,0,0,1,2.55-6.06,8.69,8.69,0,0,1,12.22,0,8.15,8.15,0,0,1,2.56,6.06m-3.66,5.29V19.79a5.17,5.17,0,0,0-1.09-3.21,5,5,0,0,0-7.46-.51,5.07,5.07,0,0,0-1.54,3.72,5,5,0,0,0,1.46,3.62,4.79,4.79,0,0,0,3.58,1.51Z"/><path class="cls-1" d="M158.63,14.64A3.69,3.69,0,0,0,155,11V24.76a3.69,3.69,0,0,0,3.67,3.67Z"/><path class="cls-1" d="M151.08,19.53v8.63H142.4a8.44,8.44,0,0,1-6.1-2.49,8.14,8.14,0,0,1-2.55-6,8.18,8.18,0,0,1,2.55-6.06,8.69,8.69,0,0,1,12.22,0,8.15,8.15,0,0,1,2.56,6.06m-3.67,5.29V19.79a5.16,5.16,0,0,0-1.08-3.21,4.87,4.87,0,0,0-4.27-1.95,4.82,4.82,0,0,0-3.19,1.44,5.08,5.08,0,0,0-1.55,3.72,5,5,0,0,0,1.47,3.62,4.79,4.79,0,0,0,3.58,1.51Z"/><path class="cls-1" d="M122.18,19.71a5.07,5.07,0,0,0,1.5,3.68,5,5,0,0,0,3.67,1.53H129a3.38,3.38,0,0,1,2.46,1,3.34,3.34,0,0,1,1,2.44h-5.15a8.61,8.61,0,0,1-6.23-2.53,8.21,8.21,0,0,1-2.61-6.13v-13a3.69,3.69,0,0,1,3.67,3.64Z"/><path class="cls-1" d="M108.58,18H115a3.3,3.3,0,0,1-1,2.44,3.42,3.42,0,0,1-2.47,1h-2.9a1.72,1.72,0,0,1-1.23-.49,1.65,1.65,0,0,1-.5-1.22,1.69,1.69,0,0,1,.49-1.24,1.64,1.64,0,0,1,1.24-.5"/><path class="cls-1" d="M109.87,28.37a8.51,8.51,0,0,1-6.15-2.51,8.23,8.23,0,0,1-2.56-6.1,8.28,8.28,0,0,1,2.56-6.11,8.46,8.46,0,0,1,6.15-2.54h5a3.34,3.34,0,0,1-1.13,2.56,3.58,3.58,0,0,1-2.4.9h-1.55a4.78,4.78,0,0,0-3.58,1.54,5.09,5.09,0,0,0-1.48,3.65,5,5,0,0,0,1.48,3.63,4.8,4.8,0,0,0,3.58,1.53h1.55a3.53,3.53,0,0,1,2.4.9,3.3,3.3,0,0,1,1.13,2.55Z"/><path class="cls-1" d="M76,19.53v8.63H67.33a8.44,8.44,0,0,1-6.1-2.49,8.14,8.14,0,0,1-2.55-6,8.18,8.18,0,0,1,2.55-6.06,8.69,8.69,0,0,1,12.22,0A8.15,8.15,0,0,1,76,19.63m-3.67,5.29V19.79a5.16,5.16,0,0,0-1.08-3.21,5,5,0,0,0-7.46-.51,5.07,5.07,0,0,0-1.54,3.72,5,5,0,0,0,1.46,3.62,4.79,4.79,0,0,0,3.58,1.51Z"/><path class="cls-1" d="M93.7,24.92V19.79a5.11,5.11,0,0,0-1.09-3.21,5,5,0,0,0-7.46-.51,5.07,5.07,0,0,0-1.54,3.72,5,5,0,0,0,1.47,3.62,4.77,4.77,0,0,0,3.58,1.51Zm3.67-5.29v8.53H88.51a9,9,0,0,1-5.78-2.08,8.31,8.31,0,0,1-.45-12.51,9,9,0,0,1,11.42-.89V10.39a3.43,3.43,0,0,1,1.08-2.53A3.55,3.55,0,0,1,97.37,6.8Z"/><path class="cls-1" d="M176.54,24.92V19.79a5.17,5.17,0,0,0-1.09-3.21,5,5,0,0,0-7.46-.51,5.07,5.07,0,0,0-1.54,3.72,5,5,0,0,0,1.46,3.62,4.79,4.79,0,0,0,3.58,1.51Zm3.66-5.29v8.53h-8.86a9,9,0,0,1-5.78-2.08,8.15,8.15,0,0,1-3.06-6.45,8.06,8.06,0,0,1,2.62-6.06,9,9,0,0,1,11.42-.89V10.39a3.43,3.43,0,0,1,1.08-2.53A3.54,3.54,0,0,1,180.2,6.8Z"/><path class="cls-1" d="M75.66,36.46H77.1v11H75.66Zm-9.12,0H68v9.61h5.28v1.44H66.54Zm13,0h1.22l6,8.35V36.46h1.44v11H87l-6.07-8.37v8.37H79.5Zm14.89,4.81h4.33v2.2a3.69,3.69,0,0,1-1.12,2.78,3.92,3.92,0,0,1-2.78,1,3.81,3.81,0,0,1-2.67-1A3.55,3.55,0,0,1,91,43.47V40.15a3.9,3.9,0,0,1,1.23-3A4.21,4.21,0,0,1,95.19,36a4.34,4.34,0,0,1,3.06,1.12,3.64,3.64,0,0,1,1.07,1.76l-1.39.38a2.33,2.33,0,0,0-.88-1.3,3,3,0,0,0-1.93-.55,2.7,2.7,0,0,0-1.82.71,2.46,2.46,0,0,0-.83,2v3.58a2.11,2.11,0,0,0,.72,1.7,2.42,2.42,0,0,0,1.63.62,2.59,2.59,0,0,0,1.73-.62,2.17,2.17,0,0,0,.72-1.7v-1H94.39Zm13.45-4.81v1h-5.28v3.36h3.84v1.44h-3.84v3.84h5.28v1.44h-6.72v-11Zm7.22,0a3.61,3.61,0,0,1,2.44.78,2.7,2.7,0,0,1,.91,2.16v.21a3.16,3.16,0,0,1-.49,1.81,2.73,2.73,0,0,1-1.39,1.06l1.08,2.28c.37.79.74,1.54,1.08,2.27h-1.43l-2.06-4.32h-3V47h-1.44V36.46Zm-3.38,5.29h3.16a2.52,2.52,0,0,0,1.55-.44A1.44,1.44,0,0,0,117,40.1v-.55a1.43,1.43,0,0,0-.58-1.21,2.52,2.52,0,0,0-1.55-.43h-3.16Zm9.61-5.29h1.44v11h-1.44Zm10.57,0v1h-5.29v3.36h3.85v1.44h-3.85v3.84h5.29v1.44h-6.73v-11Zm13.42,2.78a2.8,2.8,0,0,1,1-2.19,3.89,3.89,0,0,1,2.7-.89,4.33,4.33,0,0,1,2.44.63,2.86,2.86,0,0,1,1.22,1.81l-1.36.15a1.58,1.58,0,0,0-.87-1,3.1,3.1,0,0,0-1.43-.34,2.6,2.6,0,0,0-1.73.54,1.6,1.6,0,0,0-.63,1.24,1.25,1.25,0,0,0,.63,1.27,5.28,5.28,0,0,0,1.83.56,8.29,8.29,0,0,1,2.6.89,2.41,2.41,0,0,1,1.17,2.21,2.91,2.91,0,0,1-1,2.37,4.49,4.49,0,0,1-2.88.81,4.58,4.58,0,0,1-2.69-.64,2.9,2.9,0,0,1-1.13-1.81l1.34-.16a1.77,1.77,0,0,0,.71,1,3.36,3.36,0,0,0,1.77.35,3.53,3.53,0,0,0,1.81-.4,1.56,1.56,0,0,0,.77-1.48c0-.86-1-1.47-3.12-1.84S145.3,40.94,145.28,39.24ZM155.39,36h7.69v1.45h-3.37V47h-1.44v-9.6h-2.88ZM165,40a3.53,3.53,0,0,1,1.11-2.75,3.91,3.91,0,0,1,2.71-1,4,4,0,0,1,2.76,1,3.56,3.56,0,0,1,1.1,2.75v3.54a3.6,3.6,0,0,1-1.11,2.75,4.19,4.19,0,0,1-5.46,0A3.53,3.53,0,0,1,165,43.53Zm1,3.66a2.34,2.34,0,0,0,.78,1.87,2.71,2.71,0,0,0,1.83.68,2.76,2.76,0,0,0,1.87-.68,2.38,2.38,0,0,0,.8-1.87V39.87a2.31,2.31,0,0,0-.79-1.87,2.8,2.8,0,0,0-1.88-.67,2.7,2.7,0,0,0-1.83.67,2.34,2.34,0,0,0-.78,1.87Zm13.94-7.19a3.59,3.59,0,0,1,2.44.78,2.7,2.7,0,0,1,.91,2.16v.21a3.23,3.23,0,0,1-.48,1.81,2.82,2.82,0,0,1-1.39,1.06c.34.74.71,1.5,1.08,2.28s.73,1.54,1.08,2.27h-1.43L180,42.71h-3V47h-1.45V36.46ZM177,41.75h3.16a2.49,2.49,0,0,0,1.54-.44,1.41,1.41,0,0,0,.58-1.21v-.55a1.4,1.4,0,0,0-.58-1.21,2.49,2.49,0,0,0-1.54-.43H177Zm15.85-5.29v1h-5.29v3.36h3.85v1.44h-3.85v3.84h5.29v1.44h-6.73v-11Z"/></g></g></svg>