<svg xmlns="http://www.w3.org/2000/svg" viewBox="0 0 45 45"><defs><style>.cls-1{fill:#bda777;}.cls-2{fill:#333;}.cls-3{fill:#fff;}</style></defs><title>Recurso 14</title><g id="Capa_2" data-name="Capa 2"><g id="Content"><path class="cls-1" d="M22.5,0A22.5,22.5,0,1,0,45,22.5,22.5,22.5,0,0,0,22.5,0ZM34.31,31.25a2.83,2.83,0,0,1-2.84,2.84H14.65a2.84,2.84,0,0,1-2.84-2.84V14.43a2.83,2.83,0,0,1,2.84-2.84H31.5a2.76,2.76,0,0,1,2.81,2.81Z"/><path class="cls-2" d="M31.5,11.59H14.65a2.83,2.83,0,0,0-2.84,2.84V31.25a2.84,2.84,0,0,0,2.84,2.84H31.47a2.83,2.83,0,0,0,2.84-2.84V14.4A2.76,2.76,0,0,0,31.5,11.59Zm-9,6.45A4.43,4.43,0,1,1,18,22.47,4.5,4.5,0,0,1,22.51,18Zm9,11.83H31c0,.94-.21,1.15-.72,1.41H14.7c-.5-.26-.72-.47-.08-1V20.38l1.13.38a6.8,6.8,0,0,0,6.76,8.79,7,7,0,0,0,7.06-6.84,6.55,6.55,0,0,0-.29-1.94l2.22-.39Zm0-12a.72.72,0,0,1-.72.72H28a.71.71,0,0,1-.7-.7v-2.8A.72.72,0,0,1,28,14.4h2.8a.71.71,0,0,1,.7.7Z"/><path class="cls-3" d="M31.5,11.59H14.65a2.83,2.83,0,0,0-2.84,2.84V31.25a2.84,2.84,0,0,0,2.84,2.84H31.47a2.83,2.83,0,0,0,2.84-2.84V14.4A2.76,2.76,0,0,0,31.5,11.59Zm-9,6.45A4.43,4.43,0,1,1,18,22.47,4.5,4.5,0,0,1,22.51,18Zm9,11.83H31c0,.94-.21,1.15-.72,1.41H14.7c-.5-.26-.72-.47-.08-1V20.38l1.13.38a6.8,6.8,0,0,0,6.76,8.79,7,7,0,0,0,7.06-6.84,6.55,6.55,0,0,0-.29-1.94l2.22-.39Zm0-12a.72.72,0,0,1-.72.72H28a.71.71,0,0,1-.7-.7v-2.8A.72.72,0,0,1,28,14.4h2.8a.71.71,0,0,1,.7.7Z"/><path class="cls-1" d="M31.5,15.1v2.8a.72.72,0,0,1-.72.72H28a.71.71,0,0,1-.7-.7v-2.8A.72.72,0,0,1,28,14.4h2.8A.71.71,0,0,1,31.5,15.1Z"/><path class="cls-1" d="M31.5,20.38v9.49H31c0,.94-.21,1.15-.72,1.41H14.7c-.5-.26-.72-.47-.08-1V20.38l1.13.38a6.8,6.8,0,0,0,6.76,8.79,7,7,0,0,0,7.06-6.84,6.55,6.55,0,0,0-.29-1.94Z"/><path class="cls-1" d="M27.07,22.47A4.56,4.56,0,1,1,22.51,18,4.5,4.5,0,0,1,27.07,22.47Z"/></g></g></svg>