<svg xmlns="http://www.w3.org/2000/svg" viewBox="0 0 45 45"><defs><style>.cls-1{fill:#bda777;}.cls-2{fill:#333;}.cls-3{fill:#fff;}</style></defs><title>Recurso 13</title><g id="Capa_2" data-name="Capa 2"><g id="Content"><g id="Style_2_copy_3" data-name="Style 2 copy 3"><path class="cls-1" d="M22.5,0A22.5,22.5,0,1,0,45,22.5,22.5,22.5,0,0,0,22.5,0Zm9.15,19.81c-.09.34-.21.68-.33,1l-.26.59L22.5,37.22,14,21.42l-.28-.65a6.36,6.36,0,0,1-.32-1A9.2,9.2,0,0,1,13,17.28a9.49,9.49,0,1,1,19,0A9.2,9.2,0,0,1,31.65,19.81Z"/><path class="cls-2" d="M22.5,7.78A9.49,9.49,0,0,0,13,17.28a9.2,9.2,0,0,0,.34,2.53,6.36,6.36,0,0,0,.32,1l.28.65,8.55,15.8L31.06,21.4l.26-.59c.12-.32.24-.66.33-1A9.2,9.2,0,0,0,32,17.28,9.49,9.49,0,0,0,22.5,7.78Zm0,13.61a4.2,4.2,0,1,1,4.2-4.19A4.19,4.19,0,0,1,22.5,21.39Z"/><path class="cls-3" d="M22.5,7.78A9.49,9.49,0,0,0,13,17.28a9.2,9.2,0,0,0,.34,2.53,6.36,6.36,0,0,0,.32,1l.28.65,8.55,15.8L31.06,21.4l.26-.59c.12-.32.24-.66.33-1A9.2,9.2,0,0,0,32,17.28,9.49,9.49,0,0,0,22.5,7.78Zm0,13.61a4.2,4.2,0,1,1,4.2-4.19A4.19,4.19,0,0,1,22.5,21.39Z"/><path class="cls-1" d="M26.7,17.2A4.2,4.2,0,1,1,22.5,13,4.19,4.19,0,0,1,26.7,17.2Z"/></g></g></g></svg>