<svg xmlns="http://www.w3.org/2000/svg" viewBox="0 0 412.68 412.68"><defs><style>.cls-1{fill:#c5b184;}.cls-2{fill:#f6f5f0;}</style></defs><title>moda</title><g id="Capa_2" data-name="Capa 2"><g id="Capa_1-2" data-name="Capa 1"><rect class="cls-1" width="412.68" height="412.68"/><path class="cls-2" d="M287.49,230.65c-.45-3.18-1.06-6.2-1.81-9.37a1.42,1.42,0,0,0-2.72,0c0,.3-.15.46-.15.76h-.31c-2.86,1.05-3.92,4.08-7.24,4.83-3.18.6-5.59-1.06-7.25-3.47a8.46,8.46,0,0,0-.61-1.21c-.15-.3-.15-.45-.3-.76,5.74-.45,11.48-1.05,17.22-1.66,1.81-.15,2-3,0-3-52.41.3-105.87.61-158.27,4.23a1.53,1.53,0,0,0-1.06,2.57,5,5,0,0,0-.45.9,21.49,21.49,0,0,0,.75,13.44,3.39,3.39,0,0,0,2.12,2,2,2,0,0,0,2.11,1.81c16.31.45,34.13,6.19,48.33,14.5,18,10.72,20.23,26.43,18.88,46.21a2.57,2.57,0,0,0,.45,1.51,3.13,3.13,0,0,0,1.81,3.93c6.19,2.41,13,4.68,19.48,2,2.57-1.06,5.44-3.17,6.65-5.74a3.13,3.13,0,0,0,3.47-2.72c2-16.16,3-36.39,15.1-48.78,10.57-10.87,24.92-11.93,37.76-18.12a1.17,1.17,0,0,0,.6-.6l.61.6c.15.15.3.15.3.3a2.57,2.57,0,0,0,2.57,0c.15-.15.3-.15.3-.3C287.34,233.52,287.64,232.31,287.49,230.65Zm-37.3-7.4c-.61,2.26-1.82,4.68-4.38,5.13-2.72.45-5-2-5.59-4.53C243.54,223.55,246.86,223.4,250.19,223.25Zm-14.05.75a15,15,0,0,0,.3,2.57c-2.11,2.72-4.22,5.74-8,5.74-4.08,0-6.95-3.63-7.4-7.4C226.17,224.76,231.16,224.45,236.14,224Zm-20.84,1.21c-.45.91-.45,2-1.06,3a6.93,6.93,0,0,1-4.53,3.47c-3.62.46-5.43-2.87-6-5.89C207.6,225.66,211.53,225.36,215.3,225.21Zm-17.37.6c-1.51,2.87-2.56,6-6.64,6-3.32,0-5.44-2.87-5.89-5.73C189.63,226.12,193.71,226,197.93,225.81Zm-16.61.31a1.23,1.23,0,0,0-.75.75c-1.66,3.32-4.08,7.25-8.31,7.4-4.53.15-7.7-4.08-7.85-8.31C170.15,226.12,175.73,226.12,181.32,226.12Zm-23.1-.31c-1.06,1.51-2.12,2.87-4.38,3.33-2.87.45-5.44-1.36-7-3.63C150.66,225.66,154.44,225.81,158.22,225.81Zm-28.7.46v-.15a2.53,2.53,0,0,0-.15-1.52c3.17.31,6.49.46,9.67.61-1.21,1.66-2,3.47-4.53,3.77A6.68,6.68,0,0,1,129.52,226.27Zm2,11a7.9,7.9,0,0,0-.31-1.66,16.21,16.21,0,0,1-1.05-2.87c.15.15.45.15.6.3a28.53,28.53,0,0,0,6.34,4.08C135.11,237.29,133.3,237.29,131.49,237.29Zm106.77,12.08h0c-1.51.46-3.93-2.41-5-3.17-1.36-1.06-2.56-2.11-3.92-3.17-.76-.6-1.82.45-1.06,1.06,2.26,2,4.53,4.23,7,6a6.08,6.08,0,0,0,1.35.75h0a47.58,47.58,0,0,0-3.32,4.23c0-.3,0-.45-.15-.6-3-2.42-6-4.53-8.61-7.4-.6-.61-1.66.3-1,1a30.15,30.15,0,0,0,8.76,7.56.65.65,0,0,0,.75-.16,48.47,48.47,0,0,0-5.74,11.93c-.9-.15-1.66.76-.9,1.51.15.16.15.31.3.46-.15.6-.46,1.21-.61,2-.75-.75-1.36-1.51-2.11-2.41-.91-.91-2.12.45-1.36,1.35.91,1.21,2,2.27,2.87,3.48-.15.75-.3,1.36-.45,2.11a52.46,52.46,0,0,0-3.93-4.23.75.75,0,1,0-1.06,1.06,39.35,39.35,0,0,0,4.68,5.29c-.15,1.21-.45,2.41-.6,3.77a66.55,66.55,0,0,1-4.83-6.19,1,1,0,0,0-1.66.91,52.59,52.59,0,0,0,6,8c-.16.76-.16,1.51-.31,2.42a124.89,124.89,0,0,0-9.06-8.91c-.75-.76-2,.45-1.21,1.21,3.33,3.32,6.35,7.24,10.12,10.11-.15,3.17-.3,6.2-.3,9.06h-.15c-2.87,1.67-4.23,4.84-7.85,5.74a16.15,16.15,0,0,1-6.65.15v-.15c-2-1.81-4.08-3.62-5.89-5.58a22.58,22.58,0,0,0,.15-3.18,38.92,38.92,0,0,0,8.46,8,.73.73,0,0,0,1.06-.61v-1.36a.54.54,0,0,0-1.06-.15v.31a43.7,43.7,0,0,1-8.15-7.71h-.16c.16-1.66.16-3.32.16-4.83a.55.55,0,0,0,.15.45c3,3.93,6.49,8.46,10.87,11.18.76.45,1.36-.6.91-1.06-3.48-3.77-7.4-6.94-10.57-10.87-.31-.45-1.06-.15-1.21.3v-2.72a24.36,24.36,0,0,1,2.41,3,.51.51,0,0,0,.91-.45,8.85,8.85,0,0,0-3.47-3.93,18.8,18.8,0,0,0-.31-3,26,26,0,0,0,5.74,3c.46.15.76-.6.3-.75-2.11-1.36-4.22-2.57-6.34-4.08a61.56,61.56,0,0,0-1.81-7.55c2.42,3.32,5.59,6.64,9.51,8.31.61.3.91-.76.46-1.06-3.33-2.57-6.65-4.68-9.22-8a.58.58,0,0,0-1,.16,35.69,35.69,0,0,0-11.93-16.47,75.5,75.5,0,0,0-12.09-7.7c.16-.3,0-.45-.15-.6-3.32-1.81-6.79-3.17-10-5.29-.61-.45-1.21.61-.61,1.06a.15.15,0,0,1,.15.15c-2.41-.91-4.83-1.66-7.25-2.42a46.08,46.08,0,0,1-7.24-4.83c-.46-.45-1.06.3-.61.61,1.06,1.05,2.42,2.11,3.63,3.17a97.73,97.73,0,0,0-14.35-2.12v-.15c-2-1.05-3.93-2.11-5.74-3.32.3,0,.6.15.91.15a11.9,11.9,0,0,0,3.17-.6,43,43,0,0,0,5.89,3.92.61.61,0,0,0,.6-1.05c-1.66-1.21-3.47-2.42-5.13-3.63A6.5,6.5,0,0,0,141,231.7c1.36,1.06,2.87,2.12,4.23,3.18s2.87,2.71,4.68,2.86c.6.16,1.06-.6.45-.9a54.7,54.7,0,0,1-8.61-5.89,6.75,6.75,0,0,0,1.66-2.57l2.72,2.27a8,8,0,0,0,2.12,1.81c.6.6,1.36,1.21,2,1.81a.56.56,0,0,0,.91-.45c3,2.26,6.19,4.53,9.21,6.94.6.46,1.36-.6.9-1-1.81-1.81-3.62-3.93-5.28-5.89h.15a30.93,30.93,0,0,1,3.32,2.56l5,3.63c.9.6,1.51-.76.75-1.36-2.26-1.66-4.68-3.17-6.95-4.83-.3-.15-.45-.3-.75-.46.6-.3,1.06-.6,1.66-.9a22.17,22.17,0,0,0,6.95,4.83,6.12,6.12,0,0,0,1.66,1.06c3.47,2.87,7.4,6.19,11.63,7.85a.46.46,0,0,0,.45-.75,66.17,66.17,0,0,0-8.61-5.89h.15a15.46,15.46,0,0,0,3.78-.16,53.48,53.48,0,0,0,7.4,4.54c.45.15,1.21-.46.6-.91-2-1.51-4.07-2.87-6.19-4.23a7.54,7.54,0,0,0,2.42-1.36c2.26,1.66,4.68,3.32,6.94,4.83.46.31.76,0,1.06-.3,3.63,3,7.85,6.8,12.23,8.16a.64.64,0,0,0,.61-1.06,45.71,45.71,0,0,0-5.59-3.78c-2.27-1.51-4.53-3.17-6.64-4.83-.31-.3-.61-.15-.91,0h0c-.15-.45-.6-.3-.91-.15-1.81-1.21-3.77-2.57-5.58-3.77a9.93,9.93,0,0,0,1.66-1.82,83.66,83.66,0,0,0,9.21,5.74c.6.3,1.21-.45.6-.9a33.57,33.57,0,0,0-4.38-3.33,10.83,10.83,0,0,0,3.17.91h.46a.72.72,0,0,0,.15.91,39.45,39.45,0,0,0,10.12,7.85,1,1,0,0,0,1.21-.3c.45-.61.3-.91,0-1.66s-.76-.46-1.06-.15A62.42,62.42,0,0,1,193,237a12.43,12.43,0,0,0,2.57-.76c3.17,2.72,7.09,5.59,11,6.65a.75.75,0,0,0,.6-1.36c-1.81-1.21-3.92-2.11-5.73-3.17a43.56,43.56,0,0,1-4.23-3,8.7,8.7,0,0,0,2.41-2.27h0c0,.15,0,.15.15.3,3.33,2.42,6.8,5.59,10.58,7.56-.76.15-1.36,1.05-.61,1.66,3.32,2.87,6.8,5.89,10.87,7.55.61.3,1.21-.76.76-1.21-3-2.72-6.65-5-9.82-7.55.61,0,1.21-.76.61-1.21a22.26,22.26,0,0,0-2.87-2.42,12.16,12.16,0,0,0,6.79-2.26,112.81,112.81,0,0,0,10.27,8.61c.61.45,1.36-.15,1.51-.91v-.91a.74.74,0,0,0-1.35-.45c-3.18-2.42-6.2-4.83-9.22-7.4.31-.3.61-.45.76-.75s.45-.61.75-.91a1.09,1.09,0,0,0,.31.6,26.5,26.5,0,0,1,2.26,2c.45.3.76.75,1.21.9a84.51,84.51,0,0,0,8.46,6c.9.46,2-.75,1.2-1.51-1.05-.9-2.26-1.81-3.47-2.71a11.94,11.94,0,0,0,3.93-.61c1.66,3.78,4.83,8.31,8.91,9.52A16.72,16.72,0,0,0,238.26,249.37Zm4.38-3.62h0c-1.67-1.66-3.48-2.57-5-4.08a23.14,23.14,0,0,1-3.62-5,10.09,10.09,0,0,0,2.11-1.21v.15a.15.15,0,0,0,.15.15.78.78,0,0,0,1.36,0c0,.61.15,1.06.61,1.21.45.45.9.75,1.36,1.21.75.75,1.51,1.36,2.26,2.11,1.21,1.06,2.42,2.12,3.63,3C244.6,244.09,243.54,244.84,242.64,245.75Zm4.38-3.32a38.1,38.1,0,0,0-5.14-4.69c-1.21-1.05-2.72-3-4.38-3.47a7.37,7.37,0,0,0,2.12-2.72,3.19,3.19,0,0,0,.9.61c-.6.15-1.21.9-.6,1.36,1.81,1.51,3.77,3,5.58,4.53,1.21.9,2.42,2,3.63,2.87A11.19,11.19,0,0,1,247,242.43Zm4.07-2.42a38.84,38.84,0,0,0-3.92-3c-1.67-1.21-3.33-2.57-5-3.78a8,8,0,0,0,3.32.61,2.58,2.58,0,0,0,1.06-.15c2.27,1.66,4.53,3.47,6.95,5.13A18.21,18.21,0,0,0,251.09,240Zm4.23-2.27c-2.11-1.66-4.38-3.17-6.49-4.68a11.45,11.45,0,0,0,2.87-1.81c.15.45.6.76.75,1.06a.87.87,0,0,0,.15,1.36c1.51,1.05,2.87,2.26,4.38,3.47A7.56,7.56,0,0,0,255.32,237.74Zm7.85-15.25c-.45,1.51.16,3-.45,4.53a5.07,5.07,0,0,1-3,3.32c-2.26.76-4.23-.9-5.13-3a6.27,6.27,0,0,0,.3-4.38c2.87-.3,5.74-.6,8.61-.75A.33.33,0,0,0,263.17,222.49ZM264.68,234a9.56,9.56,0,0,0,2.87-3.63.15.15,0,0,1,.15-.15,11,11,0,0,0,3.63,2.12A32.54,32.54,0,0,0,264.68,234Z"/><path class="cls-2" d="M128.16,148.49c-2.41-1.81-5-3.77-7.55-5.44-.45-.3-.75.31-.45.61a26.49,26.49,0,0,0,7.25,5.74C128,149.7,128.77,148.94,128.16,148.49Z"/><path class="cls-2" d="M141,149.4c-2.87-1.81-5.59-3.63-8.31-5.59a.53.53,0,0,0-.15-.76,61.8,61.8,0,0,1-7.1-5.58c-.45-.46-1.2.3-.75.75a19.92,19.92,0,0,0,6.19,5c-.3.3-.45.75,0,1a25.65,25.65,0,0,0,9.67,6.35C141.3,151.06,141.75,149.85,141,149.4Z"/><path class="cls-2" d="M133.45,139.43c-2.87-2.42-5.89-4.53-8.91-6.64-.45-.31-.91.45-.45.75,3,2.27,5.88,4.53,8.91,6.49C133.3,140.34,133.9,139.73,133.45,139.43Z"/><path class="cls-2" d="M135.86,135.2a47.87,47.87,0,0,1-10.11-6.49c-.31-.3-.91.15-.46.45a38.41,38.41,0,0,0,10.12,6.8C135.86,136.11,136.32,135.35,135.86,135.2Z"/><path class="cls-2" d="M137.37,131.58c-3-2.57-6.49-4.68-9.66-7-.45-.3-1.06.45-.45.91,3.17,2.26,6.19,5,9.51,6.94C137.22,132.79,138,132,137.37,131.58Z"/><path class="cls-2" d="M139.19,128.71c-2.57-2.87-6.5-5-9.52-7.1-.75-.45-1.36.6-.75,1.21,3,2.26,6.19,5.13,9.51,6.79C139,129.76,139.64,129.16,139.19,128.71Z"/><path class="cls-2" d="M142.51,126.74c-3-2.56-6.65-4.53-9.82-6.64a.61.61,0,1,0-.6,1.06c3.17,2.11,6.34,4.83,9.82,6.49C142.36,128,143.11,127.2,142.51,126.74Z"/><path class="cls-2" d="M136.32,158.61a68.69,68.69,0,0,1-11.18-5.29c-.3-.15-.6.31-.3.46a31.77,31.77,0,0,0,11.33,5.58C136.62,159.67,136.77,158.76,136.32,158.61Z"/><path class="cls-2" d="M137.07,155.29c-2.87-1.51-5.89-2.87-8.91-4.23-.45-.15-.9.45-.45.6,2.87,1.51,5.74,3.17,8.76,4.53C137.07,156.5,137.68,155.59,137.07,155.29Z"/><path class="cls-2" d="M139.34,152.72c-3-2-6.34-3.47-9.52-5.29-.45-.15-.75.31-.3.61,3.17,1.81,6.19,3.93,9.52,5.44A.41.41,0,0,0,139.34,152.72Z"/><path class="cls-2" d="M143.57,147.28c-3.17-2.11-6.35-3.77-9.22-6.34a.43.43,0,0,0-.6.6c2.72,2.57,5.89,5.29,9.36,6.65A.52.52,0,0,0,143.57,147.28Z"/><path class="cls-2" d="M146,144.26c-3-2.26-6.19-3.77-9.06-6.19-.75-.6-1.66.45-1.06,1.06,2.72,2.57,6,5.44,9.52,6.34C146.28,145.62,146.59,144.57,146,144.26Z"/><path class="cls-2" d="M148.7,140.64c-2.57-2.57-5.89-4.23-8.61-6.8-.75-.75-2,.46-1.21,1.21,2.57,2.42,5.74,5.59,9.22,6.49A.54.54,0,0,0,148.7,140.64Z"/><path class="cls-2" d="M152,138.07c-2-.91-3.62-2.57-5.43-3.77-2-1.36-3.93-2.87-5.89-4.23-.76-.46-1.66.6-.91,1.2,2.42,1.82,4.83,3.78,7.25,5.59,1.36,1.06,3.17,3.32,5,2.27C152.48,138.83,152.48,138.22,152,138.07Z"/><path class="cls-2" d="M153.53,135.05a76,76,0,0,0-9.21-6.34c-.9-.61-1.81.9-.9,1.51,3,2,6,4.23,9.21,5.89C153.38,136.41,154.14,135.65,153.53,135.05Z"/><path class="cls-2" d="M148.4,160.27c-2.72-2-6-3.32-8.91-5-.61-.31-1.06.6-.61.9,2.87,1.66,5.74,3.78,8.92,5.14C148.4,161.48,149,160.72,148.4,160.27Z"/><path class="cls-2" d="M151.27,158.61c-.15-.15-.45-.3-.61-.6s-.15-.16-.3-.16a54.52,54.52,0,0,0-9.51-5.58c-.61-.3-1.21.6-.61.9a113.89,113.89,0,0,1,10.27,6C151.27,159.82,151.72,159.06,151.27,158.61Z"/><path class="cls-2" d="M152.63,155.14a58.2,58.2,0,0,0-9.67-5c-.45-.15-.75.61-.3.91,3,1.81,6.19,3.62,9.36,5.28C152.63,156.65,153.23,155.59,152.63,155.14Z"/><path class="cls-2" d="M154.29,151.51c-2.72-1.66-5.59-2.87-8.16-4.83-.6-.45-1.51.3-.9.91,2.41,2.11,5.28,4.38,8.45,5.28C154.44,152.87,154.89,152,154.29,151.51Z"/><path class="cls-2" d="M277.37,93.67a.55.55,0,0,0,.15-.45A1.08,1.08,0,0,0,278.58,92a122.7,122.7,0,0,0-9.36-51.35c-4.08-9.66-8.92-14.49-18.13-13.29a1.62,1.62,0,0,0-1.66-.9c-12.38,1.66-11.78,14.65-11.78,24.61-.15,19.64.15,40.17,6,59.05-12.23,8.76-24.31,18-35,28.24-3.63-5.43-11.48-4.53-16.92-1.36l-.45-.45c-9.36-8.61-19.78-16.46-29.9-24.31a20.42,20.42,0,0,0-2.27-1.66c1.81-15.11,1.51-30.36.46-45.46-.61-8.76-.16-21-4.54-28.85-3.77-6.19-11.93-9.66-17.06-4.83a1.91,1.91,0,0,0-2.57.3c-13.74,16.16-13.59,42.74-6.94,61.92-23,16-28.7,54.67-3.48,71.58,21,14.2,45.61,6.05,59.35-11.93,4.53-.75,9.06-2,13.75-2.26,5.43-.45,10.87.75,16.31.3a1.85,1.85,0,0,0,1.2-.6c13.9,16.61,39.42,20.69,57.69,7.09C294.44,141.85,295.64,111.79,277.37,93.67ZM157.31,119.34c.3-.45.15-.75,0-1.2h0c4.08,3,8.31,6.19,12.53,9.21h-.3c-.6-.61-1.36-1.06-2.26-.3-2.57,1.81-6,4.22-9.06,1.81C155.35,126.74,155.35,122.06,157.31,119.34Zm-2.27-3a.53.53,0,0,0-.45.16c-3.32,1.81-6.49,4.37-10.42,2-3.77-2.27-3.93-8.16-1.81-11.63h0Q148.7,111.79,155,116.32Zm-13.13-42c0-3.62-1.36-16,.6-22.05.75,16.31,2.42,32.62,3.77,48.93-1.66-1.21-3.32-2.26-5-3.47a2.27,2.27,0,0,0,1.21-2C142.51,88.69,141.91,81.44,141.91,74.34Zm-11-11.18c1.06-9.66,4.68-18.12,7.4-27.18,14.2-11.78,15.1,34.89,15.25,37.91.46,11,.31,22,.76,33.07-1.21-.9-2.57-2-3.78-2.87v-.15c-.45-18.88-1.51-37.91-5-56.48-.3-1.51-2.57-1.51-3.17-.3-4.83,1.36-4.83,8.3-5.29,12.83A107.56,107.56,0,0,0,138,95.48a46.63,46.63,0,0,0-4.68-2.56A85.73,85.73,0,0,1,130.88,63.16Zm-.3,33.23c.15,0,.3.15.45.15a92.81,92.81,0,0,0,8.91,8.31c-4.53,4.07-9.51,3.62-13.59-.31C127.86,101.67,129.22,99,130.58,96.39Zm6.64,19.18c-1.51-1.06-3.17-2.12-4.83-3.17a12.19,12.19,0,0,0,4.68-.91A12.44,12.44,0,0,0,137.22,115.57Zm39.72,35c-1.51-.91-3.17-1.36-4.68-2.12a27.57,27.57,0,0,1-5.13-3.47c-.76-.61-2,.45-1.21,1.21,2.56,2.26,6,4.83,9.66,5.74-.6.45-1.05,1.05-1.66,1.51,0-.16-.15-.16-.15-.31a87.78,87.78,0,0,0-11.78-6,1.14,1.14,0,0,0-.3-.6c-3.47-2.27-6.95-4.08-10.12-6.8-.91-.75-2.11.46-1.21,1.21,3.17,2.72,6.8,5.59,10.88,7.1h.15a.15.15,0,0,0,.15.15A120.21,120.21,0,0,0,173,154.38c-1.06.76-2.12,1.66-3.18,2.27a43.45,43.45,0,0,0-4.53-2.72c-2-1.21-4.07-2.42-6-3.78a.9.9,0,0,0-.6-.15l.15-.15c.45-.6,0-1.51-.76-1.21s-4.22-2.56-4.83-3a59.48,59.48,0,0,1-4.83-3.77c-.91-.76-2.27.45-1.36,1.36,1.66,1.36,3.32,2.71,5.13,4.07,1.51,1.06,3.48,2.72,5.44,3.18h.45a.93.93,0,0,0,.31,1.2c3,2,6.34,4.53,9.81,6a11.35,11.35,0,0,1-1.51.91,38.76,38.76,0,0,0-4.38-2c-2-.91-3.77-2-5.58-3a.61.61,0,1,0-.61,1.05,53,53,0,0,0,8.61,5,10.16,10.16,0,0,1-1.81.9c-2.72-1.36-5.59-2.56-8.46-3.77a.48.48,0,0,0-.3.9c2.41,1.21,5,2.42,7.55,3.48a37.55,37.55,0,0,1-4.38,1.51,61.17,61.17,0,0,1-6.95-3.63c-.6-.3-1.05.46-.45.91a35.45,35.45,0,0,0,5.13,3.17,29.62,29.62,0,0,1-8.15.76c0-.31-.15-.46-.45-.61a37.12,37.12,0,0,1-8.61-4.83c-.46-.3-1.06.45-.61.75a16.41,16.41,0,0,0,6,4.08,34.27,34.27,0,0,1-11.77-4.53,31.75,31.75,0,0,1-10-9.51,27,27,0,0,0,5.74,3.32c.45.15.75-.6.3-.76-2.57-1.66-5.14-3.47-7.55-5.28-.46-1.06-.91-2.27-1.36-3.47a.66.66,0,0,0,.75-1.06c-.45-.45-.9-1.06-1.36-1.51-.15-.76-.15-1.66-.3-2.42a28.8,28.8,0,0,0,3.32,2.57.56.56,0,0,0,.76-.76c2.27,2,4.53,3.93,6.8,5.74.3.3.75-.3.45-.6-2.27-2-4.53-3.78-6.8-5.74-.3-.3-.75.15-.6.45l-4.08-3.62a39.87,39.87,0,0,1,.15-4.23,17.64,17.64,0,0,0,4.53,3.77c.3.16.91-.3.61-.6a25.3,25.3,0,0,0-4.08-3.93l-.91-.9a17.72,17.72,0,0,1,.61-3,20.83,20.83,0,0,0,3.47,2.87c.76.45,1.36-.61.91-1.06-1.36-1.36-2.72-2.57-4.08-3.78.15-.9.45-1.66.6-2.56a55.28,55.28,0,0,0,5.14,5.13.64.64,0,1,0,.9-.91,52.67,52.67,0,0,0-5.58-5.89,13.3,13.3,0,0,0,.75-2.26c1.66,1.81,3.17,3.77,4.83,5.59.46.6,1.36.15,1.36-.61a2.94,2.94,0,0,0-.45-2c-.3-.45-.75-.3-1.06,0-1.36-1.51-2.72-3-4.23-4.53.31-.76.61-1.36.91-2.12a27.87,27.87,0,0,0,6,5.14c.76.45,1.36-.61.91-1.06-2-2.11-4.08-3.92-6.19-5.89.15-.45.3-.75.45-1.21l3.62,3.63c1.21,1.21,2.57,3.17,4.38,3.47.76.15,1.51-.75.76-1.36-2.72-2.41-5.44-5-8-7.7a5.82,5.82,0,0,1,.61-1.36A10.32,10.32,0,0,0,130,112.4a.33.33,0,0,0,.31.3c2.26,1.66,4.68,3.32,7.09,4.83h.31a10.87,10.87,0,0,0,3,4.38,52.78,52.78,0,0,1-4.38-3.78c-.61-.6-1.66.31-1.06,1.06a28.64,28.64,0,0,0,7.4,6c.6.3,1.36-.45.76-.9l-2.27-1.82a13.21,13.21,0,0,0,10,1.82,10.74,10.74,0,0,0,.75,5.74c-2-1.21-4.07-2.42-6.19-3.63-.75-.3-1.36.61-.6,1.06,3.17,1.81,6.19,3.92,9.36,6h.3a10.1,10.1,0,0,0,7.4,2c1.06.91,2.12,1.66,3.17,2.57a7.5,7.5,0,0,0,.61,2,79.79,79.79,0,0,1-7.7-4.68c-.61-.45-1.51.76-.76,1.21,3.47,1.81,6.34,4.68,10,6.19a8.6,8.6,0,0,0,3,2.72,7.24,7.24,0,0,0,3,1.06,23.35,23.35,0,0,0,5.28,2.26Zm-3.62-10.12c-4.23-2.27-4.23-8-2.72-11.93a1,1,0,0,0-.15-.91c4.38,3.17,8.91,6.34,13.59,9.36C181.32,140.19,177.24,142.6,173.32,140.49Zm15.1,6.64a48.36,48.36,0,0,0,2.42-4.83,13.18,13.18,0,0,1,8.45-2.72c2.72.15,5,1.36,7.7,1.66.31,0,.46,0,.61-.15a2.53,2.53,0,0,0,2.72,1.51,26.6,26.6,0,0,0,2.41,4.08C205.79,143.81,196.12,144.26,188.42,147.13Zm96.2-22.2c0-.45-.61-.75-1.06-.75-.9.3-3.47-2.27-4.08-2.87a44.62,44.62,0,0,1-3.92-3.32c-1.06-.91-2.42.6-1.51,1.51a76.93,76.93,0,0,0,6.64,5.58c1.36.91,2.57,1.82,3.78.31.15,0,.15-.16.15-.46-.15,1.36-.3,2.57-.45,3.78l-2.87-2.42a1.17,1.17,0,0,0-2,.76l-.45-.91c-.3-.45-.91-.15-1.06.3a37.28,37.28,0,0,1-6.19-4.68.71.71,0,0,0-1.21.15.15.15,0,0,0-.15-.15,28.79,28.79,0,0,0-3.17-1.36c-.45-.15-1.66-.75-2.72-1.06a11.53,11.53,0,0,0,1.36-5.43,80,80,0,0,0,6.34,5.74,1,1,0,0,0,1.67-.76,2.31,2.31,0,0,0-.46-1.66.79.79,0,0,0-1.21-.15c-1.66-1.36-3.17-2.72-4.68-4.08a9.2,9.2,0,0,0,4.53.3,60.33,60.33,0,0,0,6,4.68,1,1,0,0,0,1.36-.45,29.42,29.42,0,0,0,5.29,5.29Zm-28.09-23.71c-.6-17.06.45-34.13.3-51.19,1.66,5.58,3.17,15.25,3.63,17.06,1.81,8.46,3.62,17.22,6.79,25.22a1.85,1.85,0,0,0,.76.76C264.23,95.79,260.46,98.5,256.53,101.22Zm4.23,11.63a7.26,7.26,0,0,1-1.21,5c-2.42,3.18-7.55,2.27-10-.45-.45-.6-1.21-.3-1.66.15l-.15-.15c3.78-2.87,7.55-5.89,11.33-8.91C259.55,110,260.61,111,260.76,112.85Zm11.32-14.5a2.25,2.25,0,0,0,.61,1.36c2.57,2,3.17,5.89.6,8.16a6.17,6.17,0,0,1-3,1.36,8.74,8.74,0,0,1-1.21-1.06c-.75-.76-1.66.15-1.51.9a12.94,12.94,0,0,1-5.73-2.86C265.29,103.64,268.76,100.92,272.08,98.35Zm9.82,16.46a.71.71,0,0,0,.91-1,26.55,26.55,0,0,0-5-4.08,8.64,8.64,0,0,0,.91-2.12,22,22,0,0,1,4.08,3.33,35.49,35.49,0,0,1,1.81,9.51L280.24,116c-.3-.3-.6-.3-.76-.15a1.12,1.12,0,0,0-1.35,0c-1.21-1.06-2.57-2-3.78-3a9,9,0,0,0,2.11-1.51A33.33,33.33,0,0,0,281.9,114.81Zm-34.43-81.4c21.14-1.66,26.28,37.46,28.24,55.58a2.42,2.42,0,0,0-2.57.45c-.9.61-1.66,1.21-2.57,1.81-.75-13.44-4.53-27.33-8-40.17-.91-3.62-2.57-8.6-5.89-8.91h0a1.85,1.85,0,0,0-3.62-.45c-.16.6-.31,1.36-.46,2a1.65,1.65,0,0,0-.3,1.21c-4.08,18.12-2.87,39.42-.15,57.39a2,2,0,0,0,1.06,1.36c-2,1.36-3.78,2.72-5.74,4.08-.91-11.78-2.12-23.56-2.42-35.49C245.05,62.11,242.18,43.53,247.47,33.41Zm-2,85.63c0,1.66.46,3.32,0,5a9.08,9.08,0,0,1-3.17,5.58c-.3.16-.45.31-.75.46-.61-.3-1.21,0-1.21.6a9.08,9.08,0,0,1-8.46-1.66Q238.71,124.26,245.5,119Zm-28.08,21.75c-.16-.3-.16-.45-.31-.61a2.3,2.3,0,0,0-1.05-.75c3.47-2.11,6.94-4.38,10.42-6.64.15.15.15.3.3.6,1.06,1.21,2.11,1.66,2.41,3.32a6.39,6.39,0,0,1-.75,4.08c-1.06,1.51-3.17,2.11-5,2.11C221.79,142.75,218.93,142.15,217.42,140.79Zm63.27-2c-2.72-2-5.58-3.63-8.45-5.44-.91-.6-1.82.91-.91,1.51,2.72,1.81,5.59,3.77,8.46,5.29a12.68,12.68,0,0,1-1.06,1.81h0c-.45-.61-1.51,0-1.21.75a52,52,0,0,1-8.15-6.19,1,1,0,1,0-1.36,1.36,37.15,37.15,0,0,0,8.6,6.8L274.8,147a.71.71,0,0,0-.9.15,38.68,38.68,0,0,1-8.91-6.64c-.91-.91-2.12.45-1.36,1.36a31.53,31.53,0,0,0,9.21,6.94c-.61.61-1.36,1.21-2.11,1.82a2.55,2.55,0,0,0-.31-.76.78.78,0,0,0-1.2,0,86.71,86.71,0,0,0-8.16-4.53c-.3-.15-.91.15-.6.6.15.31.3.46.45.76a.46.46,0,0,0,.6,0c2.57,1.51,5.14,3.17,7.55,4.83-.75.46-1.51,1.06-2.26,1.51v-.15a.63.63,0,0,0-1.21,0c0,.15-7.1-4.53-7.4-4.83-.75-.61-1.66.45-1.06,1.06,2.12,1.81,4.84,4.38,7.55,5.13-.6.3-1.35.6-2,.91a.6.6,0,0,0-.9.3c-.16.45-9.67-5.44-10.42-6s-1.21.6-.61,1.06a72.65,72.65,0,0,0,9.21,5.73h0a40,40,0,0,1-4.07,1.21,80.14,80.14,0,0,1-9.22-5.28c-.6-.46-1.21.6-.6,1a48.6,48.6,0,0,0,7.7,4.53c-11.33,1.82-22.5-2.26-31.71-9.66h.3c2.11,2.26,5.44,3.77,8.3,4.83.61.15,1.06-.75.46-1.06-1.51-.75-3.17-1.51-4.68-2.26-.76-.45-1.36-.91-2.12-1.36a10.4,10.4,0,0,0,3.78-.76,18.63,18.63,0,0,0,5.43,2.87c.61.16.91-.75.46-1.05-1.51-.91-2.87-1.82-4.38-2.57a19,19,0,0,0,1.81-1.36,2.07,2.07,0,0,0,.45-.6c.91.6,2,1.2,2.87,1.81a.45.45,0,0,0-.3.75c3.47,2.42,7,4.84,10.57,7.1a.44.44,0,1,0,.45-.75c-3.17-2.27-6.49-4.38-9.81-6.35.3,0,.75-.45.3-.75a22.68,22.68,0,0,0-3.62-2.57,10.78,10.78,0,0,0,1.2-2.72,14.31,14.31,0,0,0,4.53,2.87c.31,0,.46,0,.46-.15,3.32,2.42,6.64,5.14,10.12,7.4.45.3,1-.45.6-.91-3.47-2.71-7.25-5-10.87-7.55h-.15c-1.52-1.2-3-2.11-4.54-3.32a7.93,7.93,0,0,0-.15-3.32c0-.15-.15-.3-.15-.45,2.72,2.11,5.29,4.53,8.16,6.19.45.3.9-.15,1-.61a50.86,50.86,0,0,0,11.48,8,.61.61,0,0,0,.61-1.06c-3.63-2.72-7.71-5-11.33-7.85a.56.56,0,0,0-.91.3,60.84,60.84,0,0,0-5.89-4.68h.61a36.14,36.14,0,0,0,7.85,4.38c.76.3,1.06-.76.45-1.06-1.81-1.21-3.62-2.27-5.43-3.47a8.87,8.87,0,0,0,3.32-1.21,22.08,22.08,0,0,0,4.83,2.72c.76.3,1.06-.76.46-1.21-1.21-.91-2.42-1.81-3.63-2.57a8.63,8.63,0,0,0,1.21-1.21,26,26,0,0,0,5.59,3.78c2.87,2.57,6.19,5.13,9.81,6.19.61.15.91-.75.46-1.06-3-2-6.2-3.62-9.07-5.89v-.15a34,34,0,0,0-5.73-4.38,10.23,10.23,0,0,0,1.36-2.87,22.52,22.52,0,0,0,2.86,2.57c1.06.91,2.12,2,3.48,1.81a.65.65,0,0,0,.6-.6v-.3a.75.75,0,0,0-.9-.91c-.76.3-3.18-2.26-3.78-2.87a17.32,17.32,0,0,1-1.66-1.66h0a39.52,39.52,0,0,0,8,4.68c.76.3,1.21-.75.76-1.21-2.42-2.26-5.59-3.77-8.46-5.43v-1.66a.71.71,0,0,0,1.21.15c.45.15.91.45,1.36.6,2.41,1.36,7.7,4.68,8.3,5a.78.78,0,0,0,.76-1.36,28.16,28.16,0,0,0-5-3.18,11.68,11.68,0,0,0,3-.9,32.46,32.46,0,0,0,4.83,3c-.45.3-.76.9-.3,1.36,2.56,2.72,5.89,5.28,9.51,6.19a.74.74,0,0,0,.91-.45,39.45,39.45,0,0,0,6,4.23C281.3,137.77,281,138.37,280.69,138.83Zm-4.53-8.31a1.16,1.16,0,0,0-1.81.6,35.43,35.43,0,0,1-7.1-4.68h.15c.76.3,1.36-.9.61-1.36-2-1.2-4.08-2.26-6.19-3.47.3-.3.75-.45,1.05-.75.15-.16.3-.46.61-.61.15,0,.3.15.45.15a38.71,38.71,0,0,0,5.74,2.42c.3.15.45,0,.75-.15v.15a32.86,32.86,0,0,0,7.71,5.89,1,1,0,0,0,1.35-.61v-.9a.59.59,0,0,0,.31.6,39,39,0,0,0,3.92,3.32,35.52,35.52,0,0,1-1,3.78A27.48,27.48,0,0,1,276.16,130.52Z"/><path class="cls-2" d="M165.46,144.57c-2.71-2.72-7.09-4.54-10.42-6.65-.9-.6-1.66.91-.75,1.36,3.32,2.11,6.79,5,10.57,6.34C165.46,145.92,165.92,145,165.46,144.57Z"/><path class="cls-2" d="M242.33,156.19a93.57,93.57,0,0,1-8-5.28c-.45-.3-1.06.45-.61.75a36.51,36.51,0,0,0,8.16,5.44A.51.51,0,1,0,242.33,156.19Z"/><path class="cls-2" d="M259.25,144.87a101.52,101.52,0,0,1-11.33-7.7c-.75-.61-1.81.45-1.06,1.05a43.71,43.71,0,0,0,11.94,7.7A.57.57,0,0,0,259.25,144.87Z"/><path class="cls-2" d="M267.1,137.32a32.33,32.33,0,0,1-8.61-6.2c-.75-.75-2,.46-1.21,1.21a24.45,24.45,0,0,0,9.37,6.34C267.25,138.83,267.86,137.62,267.1,137.32Z"/><path class="cls-2" d="M270.57,135.05a34.24,34.24,0,0,0-9.81-6c-.91-.3-1.51,1.21-.61,1.51a53.67,53.67,0,0,1,9.52,5.59C270.42,136.56,271.18,135.5,270.57,135.05Z"/><path class="cls-2" d="M191.44,254.66c-3.62-2.57-7.4-4.83-11-7.55-.46-.3-1.06.45-.61.75A71.78,71.78,0,0,0,191,255.41C191.44,255.72,191.89,255,191.44,254.66Z"/><path class="cls-2" d="M194.91,250.88a.52.52,0,0,0-.15.3,68.22,68.22,0,0,1-9.66-6.64c-.46-.45-1.21.3-.76.75a39.56,39.56,0,0,0,10.27,7.56.7.7,0,0,0,1.06-.46,2.13,2.13,0,0,0,.3-.9A.63.63,0,0,0,194.91,250.88Z"/><path class="cls-2" d="M202,265.83a97.82,97.82,0,0,1-8.46-7.4c-.45-.6-1.36.31-.75.76a40.29,40.29,0,0,0,8.61,7.4C201.86,266.89,202.46,266.14,202,265.83Z"/><path class="cls-2" d="M206.84,261.3a.58.58,0,0,0-1.05.15c-2.87-2.41-5.89-4.68-8.76-7.24-.76-.61-1.81.45-1.06,1a110.51,110.51,0,0,0,10.12,8.46.86.86,0,0,0,1.21-.6A2.71,2.71,0,0,0,206.84,261.3Z"/><path class="cls-2" d="M219.83,268.4a71.49,71.49,0,0,1-9.36-8.46c.45-.15.6-1.05,0-1.2-2.27-.61-4.08-2.57-5.74-3.93s-3.32-2.72-5-3.93c-.46-.45-1.21.3-.76.76,2.11,2,4.23,3.77,6.49,5.74a20.27,20.27,0,0,0,3,2.26v.15c2.72,3.78,6.35,7.7,10.73,9.82C219.68,269.61,220.44,268.85,219.83,268.4Z"/><path class="cls-2" d="M213.19,254.81c-3.33-1.06-6-3.93-8.46-6.34-.76-.76-2.11.45-1.21,1.2a56.57,56.57,0,0,0,5.59,5c1.21.9,2.57,2.11,4.23,1.36A.72.72,0,0,0,213.19,254.81Z"/><path class="cls-2" d="M216.81,250.73c-3.32-2.11-6.34-3.62-8.61-6.94-.75-1.06-2.41,0-1.66.9,2.27,3.32,5.74,6.8,9.82,7.25C217.11,252.24,217.57,251.18,216.81,250.73Z"/><path class="cls-2" d="M223.15,243.94a.71.71,0,0,0-1.05.15,58.13,58.13,0,0,1-6-4.68,1,1,0,1,0-1.36,1.35,37.25,37.25,0,0,0,7.85,6.05,1,1,0,0,0,1.51-.91A2.4,2.4,0,0,0,223.15,243.94Z"/><path class="cls-2" d="M212.88,276.71a62.58,62.58,0,0,1-10.57-9.37c-.3-.3-.75.16-.6.46a35,35,0,0,0,10.57,10A.61.61,0,0,0,212.88,276.71Z"/><path class="cls-2" d="M216.51,272.33c-2.72-2.42-5.74-4.53-8.16-7.4-.6-.76-1.66.3-1,1.06,2.26,2.71,5.13,5.89,8.45,7.24C216.36,273.54,217.11,272.78,216.51,272.33Z"/><path class="cls-2" d="M224.06,265.68c-2.87-2.87-6.34-5.28-9.36-8.3-.76-.76-2,.45-1.21,1.2,2.87,3,6,6.35,9.82,8A.59.59,0,1,0,224.06,265.68Z"/><path class="cls-2" d="M226,261.91c-2.56-2.72-5.43-4.68-7.85-7.7-.6-.76-1.81,0-1.21.75,2.12,3,4.83,6.34,8.31,7.85C226,263.12,226.63,262.36,226,261.91Z"/><path class="cls-2" d="M229,258.43c-2.87-2.41-5.73-4.68-8.6-6.94-.76-.61-2,.45-1.21,1.2,3.17,2.57,6.34,5.14,9.51,7.56.3.3.76,0,1.06-.31s.45-.6.3-1.2C230.1,258.13,229.19,257.83,229,258.43Z"/><path class="cls-2" d="M219.83,296a.79.79,0,0,0-1.21-.15,133.06,133.06,0,0,1-10-10.42c-.61-.61-1.82.3-1.21.9a81.07,81.07,0,0,0,10.87,11.93c.45.31,1.21.46,1.51-.15A1.82,1.82,0,0,0,219.83,296Z"/><path class="cls-2" d="M221.49,292.11c-4.07-2.87-7.25-7.1-11-10.57a.49.49,0,0,0-.76.6c.15.31.31.46.46.76s.3.3.45.15c1.66,2,3.47,3.93,5.29,5.89,1.51,1.66,2.86,3.77,5.13,4.38C221.79,293.62,222.25,292.56,221.49,292.11Z"/></g></g></svg>