<svg xmlns="http://www.w3.org/2000/svg" viewBox="0 0 45 45"><defs><style>.cls-1{fill:#bda777;}.cls-2{fill:#333;}.cls-3{fill:#fff;}</style></defs><title>Recurso 12</title><g id="Capa_2" data-name="Capa 2"><g id="Content"><g id="Style_2_copy_3" data-name="Style 2 copy 3"><path class="cls-1" d="M22.5,0A22.5,22.5,0,1,0,45,22.5,22.5,22.5,0,0,0,22.5,0Zm-5,7.73,5.09,6.52-2.66,2.08L14.85,9.8Zm-1.3,19.75c-7.56-9.69-2.74-16.6-2.74-16.6l5.09,6.52a10.92,10.92,0,0,0,8,10.23l5.09,6.51S23.78,37.15,16.21,27.48ZM33,33.08l-5.09-6.52,2.66-2.08L35.69,31Z"/><polygon class="cls-2" points="19.94 16.33 14.85 9.8 17.51 7.73 22.6 14.25 19.94 16.33"/><path class="cls-2" d="M26.56,27.63l5.09,6.51s-7.87,3-15.44-6.66-2.74-16.6-2.74-16.6l5.09,6.52a10.92,10.92,0,0,0,8,10.23Z"/><rect class="cls-2" x="30.13" y="24.65" width="3.38" height="8.26" transform="translate(-10.98 25.74) rotate(-38.06)"/></g><g id="style_4" data-name="style 4"><rect class="cls-3" x="30.13" y="24.65" width="3.38" height="8.26" transform="translate(-10.98 25.74) rotate(-38.06)"/><path class="cls-3" d="M31.65,34.14s-7.87,3-15.44-6.66-2.74-16.6-2.74-16.6l5.09,6.52a10.92,10.92,0,0,0,8,10.23Z"/><polygon class="cls-3" points="22.6 14.25 19.94 16.33 14.85 9.8 17.51 7.73 22.6 14.25"/></g></g></g></svg>