<svg xmlns="http://www.w3.org/2000/svg" viewBox="0 0 412.68 412.68"><defs><style>.cls-1{fill:#c5b184;}.cls-2{fill:#f6f5f0;}</style></defs><title>sustentabilidad</title><g id="Capa_2" data-name="Capa 2"><g id="Capa_1-2" data-name="Capa 1"><rect class="cls-1" width="412.68" height="412.68"/><path class="cls-2" d="M314.51,280.39c3,4.57,6.1,9.29,3.54,14.07s-8.32,4.86-14.4,4.91H275.24l-24.57,0c-10.46,0-21,0-25.32,0-6.29,0-12.24-.06-14.85-4.92s.43-9.31,3.32-13.74l13.31-20h0l1.31-2c5.59-8.42,20.41-30.81,24.45-36.79a42,42,0,0,1,4.41-5.78c2.34-2.39,4.93-3.48,7.68-3.24,4.77.43,7.61,4.6,10.35,8.63a6.35,6.35,0,0,1-10.51,7.14c-.2-.31-.4-.59-.58-.86l-.82,1.2c-4,5.94-18.82,28.3-24.39,36.72l-1.32,2v0L225.1,286.67h.31c8.37,0,39.94,0,49.38,0l.44,0h28.21c-2.14-3.23-8.92-13.43-16.4-24.67l-1.73,8.77a6.35,6.35,0,0,1-12.46-2.45l4.68-23.71a6.34,6.34,0,0,1,2.53-4.08l.2-.14a5.9,5.9,0,0,1,.69-.4,6.31,6.31,0,0,1,4.07-.55l23.88,4.71a6.35,6.35,0,1,1-2.46,12.46l-8.91-1.76C305.79,267.26,313.06,278.2,314.51,280.39Zm31.33-177.92L283.42,61.64a6.3,6.3,0,0,0-3.47-1h0l-34.65,0A6.35,6.35,0,0,0,239,66.26c-1.21,10.28-18.91,15.41-35.74,15.22h-.16c-16.86.2-34.53-4.94-35.73-15.22a6.36,6.36,0,0,0-6.3-5.61l-34.64,0a6.16,6.16,0,0,0-3.49,1L60.52,102.47a6.35,6.35,0,0,0-2.28,8L79.8,156.7a6.35,6.35,0,0,0,8.44,3.07l31.83-14.84V270.51a6.35,6.35,0,0,0,6.35,6.35h69a6.35,6.35,0,0,0,0-12.7H132.76V135a6.34,6.34,0,0,0-9-5.75l-35.1,16.37-16.56-35.5L128.3,73.3l27.86,0c5.82,14.67,26.9,21.07,47,20.83,20.15.24,41.2-6.16,47-20.83l27.86,0,56.23,36.78-16.55,35.5-35.11-16.37a6.35,6.35,0,0,0-9,5.75V197.5a6.35,6.35,0,1,0,12.69,0V144.93l31.83,14.84a6.35,6.35,0,0,0,8.44-3.07l21.56-46.24A6.35,6.35,0,0,0,345.84,102.47Z"/></g></g></svg>